<svg xmlns="http://www.w3.org/2000/svg" viewBox="0 0 433.3 218.68"><defs><style>.cls-1,.cls-7,.cls-8{fill:#fff;}.cls-1,.cls-3,.cls-5,.cls-6,.cls-9{stroke:#880015;}.cls-1,.cls-3,.cls-5,.cls-6,.cls-7,.cls-9{stroke-miterlimit:10;}.cls-1,.cls-3,.cls-6{stroke-width:3px;}.cls-2{fill:#c3c3c3;}.cls-3{fill:none;}.cls-4{fill:#848484;}.cls-5,.cls-6,.cls-9{fill:#880015;}.cls-5{stroke-width:2px;}.cls-7{stroke:#fff;stroke-width:4px;}.cls-9{stroke-width:0.5px;}</style></defs><g id="Layer_2" data-name="Layer 2"><g id="Layer_1-2" data-name="Layer 1"><rect class="cls-1" x="122.65" y="1.5" width="245.02" height="158.21" rx="10"/><rect class="cls-2" x="122.65" y="22.95" width="245.02" height="64.39"/><rect class="cls-2" x="307.12" y="95.31" width="51.08" height="30.88"/><rect class="cls-3" x="122.65" y="1.5" width="245.02" height="158.21" rx="10"/><rect class="cls-1" x="315.94" y="93.16" width="86.51" height="111.32" rx="10"/><rect class="cls-2" x="315.94" y="110.03" width="86.51" height="38.78"/><rect class="cls-2" x="189.31" y="95.31" width="51.08" height="30.88"/><rect class="cls-2" x="189.31" y="130.3" width="51.08" height="3.69" rx="1.84"/><rect class="cls-4" x="156.68" y="11.3" width="22.04" height="3.69" rx="1.84"/><rect class="cls-4" x="145.05" y="11.27" width="3.69" height="3.69" rx="1.84"/><rect class="cls-5" x="136.72" y="11.27" width="3.69" height="3.69" rx="1.84"/><rect class="cls-2" x="189.31" y="137.23" width="51.08" height="3.69" rx="1.84"/><rect class="cls-2" x="189.31" y="144.16" width="51.08" height="3.69" rx="1.84"/><rect class="cls-2" x="248.33" y="130.3" width="51.08" height="3.69" rx="1.84"/><rect class="cls-2" x="248.33" y="137.23" width="51.08" height="3.69" rx="1.84"/><rect class="cls-2" x="248.33" y="144.16" width="51.08" height="3.69" rx="1.84"/><rect class="cls-2" x="307.12" y="130.3" width="51.08" height="3.69" rx="1.84"/><rect class="cls-2" x="307.12" y="137.23" width="51.08" height="3.69" rx="1.84"/><rect class="cls-2" x="307.12" y="144.16" width="51.08" height="3.69" rx="1.84"/><rect class="cls-2" x="131.14" y="95.31" width="51.08" height="30.88"/><rect class="cls-1" x="26.23" y="100.11" width="154.2" height="106.78" rx="10"/><rect class="cls-2" x="26.23" y="113.6" width="154.2" height="40.45"/><rect class="cls-2" x="248.33" y="95.31" width="51.08" height="30.88"/><rect class="cls-3" x="26.23" y="100.11" width="154.2" height="106.78" rx="10"/><rect class="cls-2" x="32.12" y="158.76" width="44.32" height="18.78"/><rect class="cls-2" x="32.12" y="179.88" width="44.32" height="2.49" rx="1.24"/><rect class="cls-2" x="32.12" y="184.56" width="44.32" height="2.49" rx="1.24"/><rect class="cls-2" x="32.12" y="189.24" width="44.32" height="2.49" rx="1.24"/><rect class="cls-2" x="80.16" y="158.76" width="44.32" height="18.78"/><rect class="cls-2" x="80.16" y="179.88" width="44.32" height="2.49" rx="1.24"/><rect class="cls-2" x="80.16" y="184.56" width="44.32" height="2.49" rx="1.24"/><rect class="cls-2" x="80.16" y="189.24" width="44.32" height="2.49" rx="1.24"/><rect class="cls-2" x="128.54" y="158.76" width="44.32" height="18.78"/><rect class="cls-2" x="128.54" y="179.88" width="44.32" height="2.49" rx="1.24"/><rect class="cls-2" x="128.54" y="184.56" width="44.32" height="2.49" rx="1.24"/><rect class="cls-2" x="128.54" y="189.24" width="44.32" height="2.49" rx="1.24"/><rect class="cls-4" x="56.65" y="106.08" width="22.04" height="3.69" rx="1.84"/><rect class="cls-4" x="45.02" y="106.04" width="3.69" height="3.69" rx="1.84"/><rect class="cls-5" x="36.69" y="106.04" width="3.69" height="3.69" rx="1.84"/><path class="cls-1" d="M181,206.9H24.58c-25.53,0-23.06,0-23-13H202C202,209.15,202.07,206.2,181,206.9Z"/><path class="cls-1" d="M200.65,184h88c14.35,0,13,0,12.92,9.95H188.86C188.85,182.24,188.81,184.51,200.65,184Z"/><rect class="cls-1" x="232.98" y="159.71" width="26.04" height="24.26"/><rect class="cls-3" x="315.94" y="93.16" width="86.51" height="111.32" rx="10"/><rect class="cls-4" x="358.16" y="100.15" width="22.04" height="3.69" rx="1.84"/><rect class="cls-4" x="346.54" y="100.11" width="3.69" height="3.69" rx="1.84"/><rect class="cls-5" x="338.2" y="100.11" width="3.69" height="3.69" rx="1.84"/><rect class="cls-2" x="320.28" y="179.01" width="35.93" height="1.65" rx="0.83"/><rect class="cls-2" x="320.28" y="182.23" width="35.93" height="1.65" rx="0.83"/><rect class="cls-2" x="320.28" y="185.45" width="35.93" height="1.65" rx="0.83"/><rect class="cls-2" x="320.28" y="154.33" width="35.93" height="21.73"/><rect class="cls-2" x="360.82" y="179.01" width="35.93" height="1.65" rx="0.83"/><rect class="cls-2" x="360.82" y="182.23" width="35.93" height="1.65" rx="0.83"/><rect class="cls-2" x="360.82" y="185.45" width="35.93" height="1.65" rx="0.83"/><rect class="cls-2" x="360.82" y="154.33" width="35.93" height="21.73"/><path class="cls-6" d="M315.94,194.94h86.51a0,0,0,0,1,0,0v0a10,10,0,0,1-10,10H325.94a10,10,0,0,1-10-10v0A0,0,0,0,1,315.94,194.94Z"/><rect class="cls-7" x="357.36" y="198.09" width="3.69" height="3.69" rx="1.84"/><rect class="cls-8" x="366.53" y="198.09" width="25.48" height="3.69" rx="1.84"/><rect class="cls-8" x="326.68" y="198.09" width="25.48" height="3.69" rx="1.84"/><rect class="cls-1" x="390.06" y="147" width="41.74" height="70.18" rx="10"/><rect class="cls-2" x="390.06" y="159.71" width="41.74" height="24.18"/><rect class="cls-3" x="390.06" y="147" width="41.74" height="70.18" rx="10"/><rect class="cls-4" x="403.05" y="151.63" width="3.69" height="3.69" rx="1.84"/><rect class="cls-9" x="396.76" y="151.63" width="3.69" height="3.69" rx="1.84"/><rect class="cls-4" x="410.93" y="151.66" width="14.59" height="3.69" rx="1.84"/><rect class="cls-2" x="393.8" y="209.82" width="33.76" height="1.65" rx="0.83"/><rect class="cls-2" x="393.8" y="206.71" width="33.76" height="1.65" rx="0.83"/><rect class="cls-2" x="393.8" y="186.6" width="33.76" height="18.66"/></g></g></svg>