<svg xmlns="http://www.w3.org/2000/svg" viewBox="0 0 375.55 195.42"><defs><style>.cls-1{fill:#fff;}.cls-1,.cls-2,.cls-5,.cls-8{stroke:#880015;}.cls-1,.cls-2,.cls-5,.cls-6,.cls-8{stroke-miterlimit:10;}.cls-1,.cls-2,.cls-5,.cls-6{stroke-width:3px;}.cls-2,.cls-6{fill:none;}.cls-3{fill:#848484;}.cls-4,.cls-5{fill:#c3c3c3;}.cls-6{stroke:#c3c3c3;}.cls-7,.cls-8{fill:#880015;}.cls-8{stroke-width:2px;}</style></defs><g id="Layer_2" data-name="Layer 2"><g id="Layer_1-2" data-name="Layer 1"><rect class="cls-1" x="1.5" y="1.5" width="245.02" height="158.21" rx="10"/><rect class="cls-2" x="1.5" y="1.5" width="245.02" height="158.21" rx="10"/><rect class="cls-3" x="17.41" y="48.73" width="58.66" height="3.69" rx="1.84"/><rect class="cls-4" x="18.41" y="57.18" width="95.56" height="3.69" rx="1.84"/><rect class="cls-4" x="18.41" y="65.62" width="97.57" height="3.69" rx="1.84"/><rect class="cls-3" x="17.41" y="85.71" width="58.66" height="3.69" rx="1.84"/><rect class="cls-4" x="18.41" y="94.16" width="95.56" height="3.69" rx="1.84"/><rect class="cls-4" x="18.41" y="102.6" width="97.57" height="3.69" rx="1.84"/><rect class="cls-3" x="17.41" y="119.97" width="58.66" height="3.69" rx="1.84"/><rect class="cls-4" x="18.41" y="128.42" width="95.56" height="3.69" rx="1.84"/><rect class="cls-4" x="18.41" y="136.86" width="97.57" height="3.69" rx="1.84"/><rect class="cls-3" x="35.53" y="11.3" width="22.04" height="3.69" rx="1.84"/><rect class="cls-3" x="23.91" y="11.27" width="3.69" height="3.69" rx="1.84"/><rect class="cls-4" x="146.22" y="23.39" width="85.7" height="48.62"/><path class="cls-1" d="M79.51,184h88c14.35,0,13,0,12.92,9.95H67.71C67.7,182.24,67.66,184.51,79.51,184Z"/><rect class="cls-1" x="111.83" y="159.71" width="26.04" height="24.26"/><rect class="cls-2" x="18.41" y="26.56" width="87.81" height="8.91"/><circle class="cls-1" cx="251.61" cy="91.37" r="51.01"/><rect class="cls-5" x="300.14" y="119.94" width="14.17" height="56.06" transform="translate(-14.64 260.58) rotate(-45)"/><circle class="cls-5" cx="247.89" cy="72.33" r="5.65"/><circle class="cls-5" cx="275.33" cy="95.55" r="5.65"/><circle class="cls-5" cx="328" cy="44.12" r="5.65"/><circle class="cls-5" cx="342.47" cy="56.04" r="5.65"/><circle class="cls-6" cx="251.61" cy="91.37" r="41.84"/><line class="cls-2" x1="165.11" y1="152.99" x2="242.6" y2="76.05"/><line class="cls-2" x1="253.75" y1="74.96" x2="270.33" y2="91.37"/><line class="cls-2" x1="280.39" y1="91.37" x2="323.35" y2="48.73"/><line class="cls-2" x1="332.87" y1="47.69" x2="338.31" y2="52.42"/><line class="cls-2" x1="347.55" y1="52.42" x2="369.3" y2="31.01"/><polygon class="cls-7" points="375.55 24.8 365.89 27.65 372.7 34.45 375.55 24.8"/><rect class="cls-8" x="15.57" y="11.27" width="3.69" height="3.69" rx="1.84"/></g></g></svg>