<svg xmlns="http://www.w3.org/2000/svg" viewBox="0 0 442.75 209.17"><defs><style>.cls-1{fill:#fff;}.cls-1,.cls-4,.cls-6{stroke:#880015;}.cls-1,.cls-4,.cls-6,.cls-7,.cls-8{stroke-miterlimit:10;}.cls-1,.cls-4{stroke-width:3px;}.cls-2{fill:#c3c3c3;}.cls-3,.cls-6{fill:#880015;}.cls-4,.cls-7,.cls-8{fill:none;}.cls-5{fill:#848484;}.cls-6{stroke-width:2px;}.cls-7{stroke:#848484;}.cls-8{stroke:#c3c3c3;}</style></defs><g id="Layer_2" data-name="Layer 2"><g id="Layer_1-2" data-name="Layer 1"><rect class="cls-1" x="1.5" y="10.44" width="245.02" height="158.21" rx="10"/><path class="cls-1" d="M354.11,74.39a133.06,133.06,0,0,0,16.6,1c39,0,70.54-16.55,70.54-37s-31.58-37-70.54-37-70.55,16.55-70.55,37c0,12.27,11.42,23.15,29,29.87l2,17Z"/><rect class="cls-2" x="327.49" y="15" width="83.08" height="3.69" rx="1.84"/><rect class="cls-2" x="313.21" y="24.71" width="109.13" height="3.69" rx="1.84"/><rect class="cls-2" x="307.24" y="34.56" width="124.09" height="3.69" rx="1.84"/><rect class="cls-2" x="311.03" y="43.41" width="117.4" height="3.69" rx="1.84"/><rect class="cls-2" x="322.53" y="52.26" width="96.9" height="3.69" rx="1.84"/><path class="cls-3" d="M366.59,42.79l-.09-1c-.27-2,.55-4.22,2.83-6.46,2.05-2,3.19-3.44,3.19-5.12,0-1.9-1.46-3.17-4.33-3.21a9.38,9.38,0,0,0-4.6,1.16l-1.1-2.36A14,14,0,0,1,369,24.34c5.24,0,7.61,2.65,7.61,5.49,0,2.54-1.73,4.37-3.92,6.5-2,1.94-2.73,3.59-2.6,5.49l0,1Zm-1,5.23a2.46,2.46,0,0,1,2.74-2.35A2.42,2.42,0,0,1,371,48c0,1.31-1,2.32-2.73,2.32A2.44,2.44,0,0,1,365.59,48Z"/><rect class="cls-4" x="1.5" y="10.44" width="245.02" height="158.21" rx="10"/><rect class="cls-1" x="208.94" y="77.28" width="100.67" height="123.93" rx="10"/><rect class="cls-5" x="15.57" y="36.23" width="39.35" height="3.69" rx="1.84"/><rect class="cls-3" x="14.79" y="44.54" width="26.67" height="3.69" rx="1.84"/><rect class="cls-5" x="14.79" y="52.85" width="26.67" height="3.69" rx="1.84"/><rect class="cls-2" x="14.79" y="61.16" width="46.06" height="3.69" rx="1.84"/><rect class="cls-3" x="65.65" y="61.16" width="27.12" height="3.69" rx="1.84"/><rect class="cls-2" x="73.39" y="69.47" width="22.13" height="3.69" rx="1.84"/><rect class="cls-5" x="46.55" y="69.47" width="22.95" height="3.69" rx="1.84"/><rect class="cls-3" x="14.79" y="69.11" width="26.98" height="3.69" rx="1.84"/><rect class="cls-2" x="14.79" y="77.06" width="22.66" height="3.69" rx="1.84"/><rect class="cls-3" x="14.79" y="85.01" width="25.32" height="3.69" rx="1.84"/><rect class="cls-2" x="14.79" y="92.96" width="25.32" height="3.69" rx="1.84"/><rect class="cls-5" x="14.79" y="100.92" width="38.31" height="3.69" rx="1.84"/><rect class="cls-5" x="58.03" y="100.92" width="21.18" height="3.69" rx="1.84"/><rect class="cls-2" x="84.92" y="100.92" width="21.18" height="3.69" rx="1.84"/><rect class="cls-3" x="44.75" y="92.96" width="15.14" height="3.69" rx="1.84"/><rect class="cls-5" x="64.43" y="92.96" width="24.56" height="3.69" rx="1.84"/><rect class="cls-3" x="92.77" y="92.96" width="17.04" height="3.69" rx="1.84"/><rect class="cls-2" x="112.97" y="92.96" width="15.64" height="3.69" rx="1.84"/><rect class="cls-5" x="44.75" y="85.01" width="29.99" height="3.69" rx="1.84"/><rect class="cls-2" x="77.77" y="85.01" width="25.93" height="3.69" rx="1.84"/><rect class="cls-2" x="41.77" y="77.06" width="22.66" height="3.69" rx="1.84"/><rect class="cls-2" x="46.55" y="52.85" width="36.13" height="3.69" rx="1.84"/><rect class="cls-5" x="46.55" y="44.54" width="26.67" height="3.69" rx="1.84"/><rect class="cls-2" x="59.16" y="36.23" width="32.7" height="3.69" rx="1.84"/><rect class="cls-3" x="96.25" y="36.23" width="29.87" height="3.69" rx="1.84"/><rect class="cls-5" x="230.13" y="93.42" width="67.81" height="3.69" rx="1.84"/><rect class="cls-2" x="230.13" y="102.48" width="67.81" height="3.69" rx="1.84"/><rect class="cls-5" x="230.13" y="111.54" width="67.81" height="3.69" rx="1.84"/><rect class="cls-2" x="230.13" y="120.6" width="67.81" height="3.69" rx="1.84"/><rect class="cls-5" x="230.13" y="129.66" width="67.81" height="3.69" rx="1.84"/><rect class="cls-2" x="230.13" y="138.73" width="67.81" height="3.69" rx="1.84"/><rect class="cls-5" x="230.13" y="147.79" width="67.81" height="3.69" rx="1.84"/><rect class="cls-2" x="230.13" y="156.85" width="67.81" height="3.69" rx="1.84"/><rect class="cls-5" x="230.13" y="165.91" width="67.81" height="3.69" rx="1.84"/><rect class="cls-2" x="230.13" y="174.97" width="67.81" height="3.69" rx="1.84"/><rect class="cls-5" x="147.03" y="44.54" width="20.3" height="3.69" rx="1.84"/><rect class="cls-3" x="147.03" y="36.23" width="29.07" height="3.69" rx="1.84"/><rect class="cls-2" x="147.03" y="52.85" width="31.38" height="3.69" rx="1.84"/><rect class="cls-2" x="147.03" y="61.16" width="19.6" height="3.69" rx="1.84"/><rect class="cls-5" x="147.03" y="69.47" width="25.21" height="3.69" rx="1.84"/><rect class="cls-2" x="147.03" y="77.78" width="19.6" height="3.69" rx="1.84"/><rect class="cls-3" x="147.03" y="86.09" width="17.63" height="3.69" rx="1.84"/><rect class="cls-3" x="147.03" y="92.96" width="14.93" height="3.69" rx="1.84"/><rect class="cls-2" x="147.03" y="100.92" width="18.47" height="3.69" rx="1.84"/><rect class="cls-2" x="147.03" y="108.87" width="23.66" height="3.69" rx="1.84"/><rect class="cls-5" x="74.81" y="90.63" width="129.81" height="3.69" rx="1.84" transform="translate(232.19 -47.23) rotate(90)"/><rect class="cls-5" x="35.53" y="20.24" width="22.04" height="3.69" rx="1.84"/><rect class="cls-5" x="23.91" y="20.21" width="3.69" height="3.69" rx="1.84"/><path class="cls-1" d="M79.51,192.91h88c14.35,0,13,0,12.92,10H67.71C67.7,191.19,67.66,193.45,79.51,192.91Z"/><rect class="cls-1" x="111.83" y="168.65" width="26.04" height="24.26"/><rect class="cls-6" x="15.57" y="20.21" width="3.69" height="3.69" rx="1.84"/><path class="cls-4" d="M215.84,101c0,3.09-3.61,5.59-8.06,5.59s-8.06-2.5-8.06-5.59,3.61-5.59,8.06-5.59"/><path class="cls-4" d="M215.84,119.13c0,3.09-3.61,5.59-8.06,5.59s-8.06-2.5-8.06-5.59,3.61-5.59,8.06-5.59"/><path class="cls-4" d="M215.84,137.26c0,3.08-3.61,5.59-8.06,5.59s-8.06-2.51-8.06-5.59,3.61-5.6,8.06-5.6"/><path class="cls-4" d="M215.84,155.38c0,3.08-3.61,5.59-8.06,5.59s-8.06-2.51-8.06-5.59,3.61-5.59,8.06-5.59"/><path class="cls-4" d="M215.84,173.5c0,3.09-3.61,5.59-8.06,5.59s-8.06-2.5-8.06-5.59,3.61-5.59,8.06-5.59"/><path class="cls-1" d="M346.79,145.81h55.28a0,0,0,0,1,0,0V188a8.16,8.16,0,0,1-8.16,8.16H354.95a8.16,8.16,0,0,1-8.16-8.16V145.81A0,0,0,0,1,346.79,145.81Z"/><path class="cls-4" d="M402.06,159.74c8.44,0,15.28,5,15.28,11.23s-6.84,11.24-15.28,11.24"/><path class="cls-1" d="M406.87,207.67H342.42c-2.27,0-9.12-.84-9.12-3.12V202c0-2.27,6.85-3.12,9.12-3.12h64.45c2.28,0,9.12.85,9.12,3.12v2.6C416,206.83,409.15,207.67,406.87,207.67Z"/><path class="cls-3" d="M355.22,170.1l12.91-6.21v1.79l-10.88,5.1v.05l10.88,5.09v1.8l-12.91-6.22Z"/><path class="cls-3" d="M369.93,178.76l7.76-18.85h1.9l-7.79,18.85Z"/><path class="cls-3" d="M394.24,171.53l-12.9,6.19v-1.8l11-5.09v-.05l-11-5.1v-1.79l12.9,6.18Z"/><path class="cls-7" d="M365.94,95.26s6.14,5.85,0,20c-5.77,13.26-3.21,18.74,1.82,22.88"/><path class="cls-8" d="M374.71,95.26s6.14,5.85,0,20c-5.77,13.26-3.21,18.74,1.82,22.88"/><path class="cls-7" d="M384,95.26s6.14,5.85,0,20c-5.77,13.26-3.21,18.74,1.82,22.88"/></g></g></svg>