<svg xmlns="http://www.w3.org/2000/svg" viewBox="0 0 452.15 214.29"><defs><style>.cls-1{fill:#fff;}.cls-1,.cls-3,.cls-4{stroke:#880015;stroke-miterlimit:10;stroke-width:3px;}.cls-2,.cls-4{fill:#c3c3c3;}.cls-3{fill:#f6f6f6;}.cls-5{fill:#880015;}</style></defs><g id="Layer_2" data-name="Layer 2"><g id="Layer_1-2" data-name="Layer 1"><path class="cls-1" d="M63.57,104.48a85.46,85.46,0,0,1-11.82.82C24,105.3,1.5,92.19,1.5,76S24,46.73,51.75,46.73,102,59.84,102,76c0,9.73-8.14,18.35-20.66,23.67l-1.4,13.46Z"/><rect class="cls-1" x="139.39" y="18.88" width="143.42" height="79.1" rx="10"/><rect class="cls-1" x="139.39" y="111.9" width="143.42" height="100.9" rx="10"/><path class="cls-2" d="M212.41,201.88,261,128.94a2,2,0,0,0-1.66-3.11H162.13a2,2,0,0,0-1.67,3.11l48.62,72.94A2,2,0,0,0,212.41,201.88Z"/><path class="cls-2" d="M249,85.68H173.24c-7.55,0-23.68-6.12-23.68-13.68V47c0-7.56,16.13-13.68,23.68-13.68H249c7.55,0,23.67,3.76,23.67,13.68V72C272.62,79.56,256.5,85.68,249,85.68Z"/><circle class="cls-3" cx="180.95" cy="55.08" r="8.35"/><circle class="cls-1" cx="242.67" cy="55.08" r="8.35"/><path class="cls-4" d="M219.44,63.43a8.35,8.35,0,1,1-16.7,0"/><rect class="cls-2" x="25.56" y="58.52" width="52.61" height="3.69" rx="1.84"/><rect class="cls-2" x="11.41" y="68.37" width="79.35" height="3.69" rx="1.84"/><rect class="cls-2" x="20.51" y="78.22" width="64.39" height="3.69" rx="1.84"/><rect class="cls-2" x="29.99" y="87.69" width="49.55" height="3.69" rx="1.84"/><path class="cls-5" d="M50.51,81.16l-.09-1c-.27-2,.55-4.22,2.83-6.46,2-2,3.19-3.44,3.19-5.12,0-1.9-1.46-3.17-4.33-3.21a9.38,9.38,0,0,0-4.6,1.16l-1.1-2.36a14,14,0,0,1,6.52-1.49c5.24,0,7.61,2.65,7.61,5.49,0,2.54-1.73,4.37-3.92,6.5-2,1.94-2.73,3.59-2.6,5.49l0,1Zm-1,5.23A2.46,2.46,0,0,1,52.24,84a2.42,2.42,0,0,1,2.69,2.35c0,1.31-1,2.32-2.73,2.32A2.44,2.44,0,0,1,49.51,86.39Z"/><path class="cls-1" d="M363.51,74.39a133.18,133.18,0,0,0,16.6,1c39,0,70.54-16.55,70.54-37s-31.58-37-70.54-37-70.55,16.55-70.55,37c0,12.27,11.42,23.15,29,29.87l2,17Z"/><rect class="cls-2" x="336.89" y="15" width="83.08" height="3.69" rx="1.84"/><rect class="cls-2" x="322.61" y="24.71" width="109.13" height="3.69" rx="1.84"/><rect class="cls-2" x="316.64" y="34.56" width="124.09" height="3.69" rx="1.84"/><rect class="cls-2" x="320.43" y="43.41" width="117.4" height="3.69" rx="1.84"/><rect class="cls-2" x="331.93" y="52.26" width="96.9" height="3.69" rx="1.84"/><path class="cls-5" d="M376,42.79l-.09-1c-.28-2,.54-4.22,2.82-6.46,2-2,3.19-3.44,3.19-5.12,0-1.9-1.46-3.17-4.33-3.21a9.38,9.38,0,0,0-4.6,1.16l-1.09-2.36a14,14,0,0,1,6.51-1.49c5.24,0,7.61,2.65,7.61,5.49,0,2.54-1.73,4.37-3.92,6.5-2,1.94-2.73,3.59-2.59,5.49l0,1ZM375,48a2.46,2.46,0,0,1,2.74-2.35A2.43,2.43,0,0,1,380.42,48c0,1.31-1.05,2.32-2.74,2.32A2.44,2.44,0,0,1,375,48Z"/><path class="cls-1" d="M349.09,173.07a83.93,83.93,0,0,0,11.82.82c27.75,0,50.25-13.11,50.25-29.28s-22.5-29.29-50.25-29.29-50.25,13.11-50.25,29.29c0,9.72,8.14,18.34,20.66,23.66l1.4,13.47Z"/><rect class="cls-2" x="334.49" y="127.11" width="52.61" height="3.69" rx="1.84" transform="translate(721.59 257.91) rotate(-180)"/><rect class="cls-2" x="321.9" y="136.96" width="79.35" height="3.69" rx="1.84" transform="translate(723.15 277.61) rotate(-180)"/><rect class="cls-2" x="327.76" y="146.81" width="64.39" height="3.69" rx="1.84" transform="translate(719.91 297.31) rotate(-180)"/><rect class="cls-2" x="333.12" y="156.29" width="49.55" height="3.69" rx="1.84" transform="translate(715.8 316.26) rotate(-180)"/><path class="cls-5" d="M359.68,149.75l-.09-1c-.28-2,.54-4.22,2.82-6.46,2-2,3.19-3.44,3.19-5.12,0-1.9-1.46-3.17-4.33-3.21a9.38,9.38,0,0,0-4.6,1.16l-1.09-2.35a13.88,13.88,0,0,1,6.51-1.5c5.24,0,7.61,2.65,7.61,5.49,0,2.54-1.73,4.37-3.92,6.5-2,1.94-2.73,3.59-2.59,5.49l0,1Zm-1,5.23a2.46,2.46,0,0,1,2.73-2.35A2.43,2.43,0,0,1,364.1,155c0,1.31-1.05,2.32-2.74,2.32A2.44,2.44,0,0,1,358.68,155Z"/></g></g></svg>