<svg xmlns="http://www.w3.org/2000/svg" viewBox="0 0 432.54 171.99"><defs><style>.cls-1{fill:#fff;}.cls-1,.cls-3,.cls-4{stroke:#880015;}.cls-1,.cls-2,.cls-3,.cls-4{stroke-miterlimit:10;stroke-width:3px;}.cls-2,.cls-4{fill:none;}.cls-2{stroke:#7f7f7f;}.cls-3{fill:#c3c3c3;}.cls-5{fill:#880015;}</style></defs><g id="Layer_2" data-name="Layer 2"><g id="Layer_1-2" data-name="Layer 1"><rect class="cls-1" x="223.29" y="22.21" width="92.9" height="67.09"/><rect class="cls-1" x="355.58" y="31.92" width="75.46" height="95.82"/><rect class="cls-1" x="250.35" y="113.39" width="80.27" height="47.7"/><rect class="cls-2" x="229.49" y="38.01" width="80.96" height="45.82"/><line class="cls-2" x1="255.61" y1="38.01" x2="255.61" y2="83.83"/><line class="cls-2" x1="284.05" y1="38.01" x2="284.05" y2="83.83"/><line class="cls-2" x1="229.49" y1="49.51" x2="310.45" y2="49.51"/><line class="cls-2" x1="229.49" y1="60.92" x2="310.45" y2="60.92"/><line class="cls-2" x1="229.49" y1="72.06" x2="310.45" y2="72.06"/><rect class="cls-2" x="226.39" y="25.03" width="86.7" height="7.49"/><path class="cls-3" d="M78.72,33.71v22h0c0,8.27-17.29,15-38.61,15S1.5,64,1.5,55.76v-22h0c0,8.26,17.29,15,38.61,15s38.61-6.71,38.61-15Z"/><path class="cls-3" d="M78.72,78v22h0c0,8.27-17.29,15-38.61,15S1.5,108.27,1.5,100V78h0c0,8.26,17.29,15,38.61,15s38.61-6.71,38.61-15Z"/><path class="cls-1" d="M78.72,55.82V77.87h0c0,8.27-17.29,15-38.61,15S1.5,86.14,1.5,77.87V55.82h0c0,8.26,17.29,15,38.61,15s38.61-6.71,38.61-15Z"/><path class="cls-1" d="M78.72,100V122h0c0,8.26-17.29,15-38.61,15S1.5,130.3,1.5,122V100h0c0,8.27,17.29,15,38.61,15s38.61-6.7,38.61-15Z"/><ellipse class="cls-1" cx="40.11" cy="33.71" rx="38.61" ry="14.97"/><path class="cls-3" d="M169.16,33.71v22h0c0,8.27-17.29,15-38.61,15s-38.61-6.7-38.61-15v-22h0c0,8.26,17.29,15,38.61,15s38.61-6.71,38.61-15Z"/><path class="cls-3" d="M169.16,78v22h0c0,8.27-17.29,15-38.61,15s-38.61-6.7-38.61-15V78h0c0,8.26,17.29,15,38.61,15s38.61-6.71,38.61-15Z"/><path class="cls-1" d="M169.16,55.82V77.87h0c0,8.27-17.29,15-38.61,15s-38.61-6.7-38.61-15V55.82h0c0,8.26,17.29,15,38.61,15s38.61-6.71,38.61-15Z"/><path class="cls-1" d="M169.16,100V122h0c0,8.26-17.29,15-38.61,15s-38.61-6.71-38.61-15V100h0c0,8.27,17.29,15,38.61,15s38.61-6.7,38.61-15Z"/><ellipse class="cls-1" cx="130.55" cy="33.71" rx="38.61" ry="14.97"/><path class="cls-3" d="M123.94,67.19v22h0c0,8.27-17.29,15-38.61,15s-38.61-6.7-38.61-15v-22h0c0,8.27,17.29,15,38.61,15s38.61-6.7,38.61-15Z"/><path class="cls-3" d="M123.94,111.43v22h0c0,8.27-17.29,15-38.61,15s-38.61-6.7-38.61-15v-22h0c0,8.27,17.29,15,38.61,15s38.61-6.7,38.61-15Z"/><path class="cls-1" d="M123.94,89.3v22h0c0,8.27-17.29,15-38.61,15s-38.61-6.7-38.61-15v-22h0c0,8.27,17.29,15,38.61,15s38.61-6.7,38.61-15Z"/><path class="cls-1" d="M123.94,133.46v22.06h0c0,8.27-17.29,15-38.61,15s-38.61-6.7-38.61-15V133.46h0c0,8.27,17.29,15,38.61,15s38.61-6.7,38.61-15Z"/><ellipse class="cls-1" cx="85.33" cy="67.19" rx="38.61" ry="14.97"/><rect class="cls-4" x="223.29" y="22.21" width="92.9" height="67.09"/><rect class="cls-2" x="257.14" y="127.74" width="67.47" height="27.69"/><line class="cls-2" x1="276.54" y1="127.74" x2="276.54" y2="155.43"/><line class="cls-2" x1="257.14" y1="137.24" x2="324.61" y2="137.24"/><line class="cls-2" x1="257.14" y1="147.07" x2="324.61" y2="147.07"/><rect class="cls-2" x="253.07" y="116.26" width="74.64" height="5.21"/><rect class="cls-2" x="360.23" y="47.05" width="65.65" height="75.4"/><line class="cls-2" x1="380.81" y1="47.05" x2="380.81" y2="122.46"/><line class="cls-2" x1="404.13" y1="47.05" x2="404.13" y2="122.46"/><line class="cls-2" x1="360.23" y1="58.55" x2="425.87" y2="58.55"/><line class="cls-2" x1="360.23" y1="69.96" x2="425.87" y2="69.96"/><line class="cls-2" x1="360.23" y1="81.11" x2="425.87" y2="81.11"/><line class="cls-2" x1="360.23" y1="91.83" x2="425.87" y2="91.83"/><line class="cls-2" x1="360.23" y1="102.24" x2="425.87" y2="102.24"/><line class="cls-2" x1="360.23" y1="112.39" x2="425.87" y2="112.39"/><rect class="cls-2" x="358.41" y="34.9" width="69.68" height="7.49"/><rect class="cls-4" x="355.58" y="31.92" width="75.46" height="95.82"/><rect class="cls-4" x="250.35" y="113.39" width="80.27" height="47.7"/><polyline class="cls-4" points="211.5 48.68 200.9 48.68 200.9 151.98 244.18 151.98"/><polygon class="cls-5" points="219.88 48.68 211.03 45.5 211.03 51.85 219.88 48.68"/><polyline class="cls-4" points="401.39 19.48 401.39 1.5 245.47 1.5 245.47 16.06"/><polygon class="cls-5" points="401.39 28.33 404.57 19.48 398.22 19.48 401.39 28.33"/><polyline class="cls-4" points="343.72 151.39 404.61 151.39 404.61 133.46"/><polygon class="cls-5" points="334.87 151.39 343.72 154.57 343.72 148.21 334.87 151.39"/></g></g></svg>